<?xml version="1.0" standalone="no"?>
<!DOCTYPE svg PUBLIC "-//W3C//DTD SVG 20010904//EN"
 "http://www.w3.org/TR/2001/REC-SVG-20010904/DTD/svg10.dtd">
<svg version="1.0" xmlns="http://www.w3.org/2000/svg"
 width="2552.000000pt" height="1740.000000pt" viewBox="0 0 2552.000000 1740.000000"
 preserveAspectRatio="xMidYMid meet">

<g transform="translate(0.000000,1740.000000) scale(0.100000,-0.100000)"
fill="#000000" stroke="none">
<path d="M7060 14739 c-238 -72 -400 -249 -441 -483 -51 -295 -69 -662 -50
-1001 25 -442 71 -762 187 -1315 29 -140 106 -441 143 -558 l19 -62 -55 -163
c-47 -140 -84 -262 -147 -482 -13 -45 -66 -259 -101 -410 -106 -452 -174
-1071 -146 -1328 15 -136 39 -212 108 -349 64 -125 64 -129 11 -283 -111 -323
-269 -517 -838 -1030 -460 -415 -867 -836 -1011 -1048 -181 -266 -292 -571
-339 -930 -13 -101 -13 -433 0 -534 37 -281 108 -515 226 -741 212 -407 576
-711 1035 -866 162 -55 284 -83 506 -115 49 -8 987 -11 2975 -11 3079 0 2937
-2 3025 43 42 22 104 87 132 138 33 61 41 199 16 267 -20 52 -71 134 -104 169
-11 12 -21 34 -21 48 0 38 56 256 89 350 60 167 77 205 169 385 161 312 181
354 268 560 9 19 19 44 24 55 82 187 263 730 311 935 47 201 69 418 77 765 l7
270 24 -45 c13 -25 46 -82 73 -126 l49 -82 -10 -58 c-5 -33 -15 -133 -22 -222
-23 -319 25 -727 127 -1072 24 -81 65 -202 84 -245 5 -11 23 -56 41 -100 38
-92 129 -273 224 -440 125 -221 289 -599 355 -822 l21 -71 -69 -69 c-115 -113
-163 -239 -137 -361 26 -125 106 -214 229 -255 46 -16 267 -17 2801 -17 2907
0 2829 -1 2995 43 195 52 414 172 591 323 270 231 430 532 514 969 27 138 40
441 27 647 -11 186 -14 209 -59 403 -108 466 -353 897 -717 1260 -144 143
-255 231 -506 400 -443 299 -774 557 -1036 808 l-121 116 -7 128 c-13 234 -28
374 -71 648 -8 55 -20 127 -25 160 -5 33 -16 103 -25 155 -9 52 -20 120 -25
150 -9 56 -27 163 -55 325 -31 178 -36 208 -33 211 2 1 60 -52 128 -120 246
-242 328 -287 526 -288 111 0 164 13 269 65 114 57 275 255 465 574 155 259
176 322 167 503 -7 152 -45 254 -137 368 -62 77 -105 108 -395 284 -137 84
-448 273 -690 422 -632 387 -999 604 -1151 679 -222 111 -458 80 -655 -85 -38
-33 -73 -56 -78 -54 -21 13 -380 37 -710 48 -384 12 -1117 1 -1559 -24 -278
-15 -367 -2 -516 74 -73 37 -77 40 -376 278 -224 179 -483 381 -603 469 l-48
36 8 155 c25 488 -6 995 -74 1200 -45 138 -157 263 -301 335 -149 75 -353 74
-508 -2 -96 -47 -354 -249 -574 -451 -141 -129 -440 -428 -581 -582 -206 -225
-263 -281 -309 -303 l-45 -22 -825 0 c-774 0 -828 1 -869 18 -58 24 -77 41
-196 172 -458 506 -905 924 -1200 1120 -115 77 -184 98 -325 101 -63 2 -131
-2 -150 -7z m91 -258 c50 -32 118 -103 168 -176 19 -28 37 -52 41 -55 13 -12
144 -223 197 -321 61 -109 243 -480 243 -493 0 -3 13 -33 28 -68 16 -35 35
-79 42 -98 7 -19 17 -39 22 -44 19 -22 4 -53 -80 -169 -190 -263 -331 -494
-496 -812 -29 -57 -156 -325 -156 -330 0 -2 -13 -32 -29 -67 -15 -35 -39 -87
-51 -115 -13 -29 -26 -53 -29 -53 -3 0 -19 55 -35 123 -15 67 -32 136 -36 152
-16 58 -57 264 -85 420 -8 50 -20 115 -25 145 -29 161 -51 365 -80 713 -30
375 11 937 80 1092 27 60 94 130 152 159 65 33 74 32 129 -3z m5404 10 c79
-36 151 -120 183 -211 32 -96 72 -500 71 -735 0 -175 -12 -381 -22 -392 -3 -2
-40 1 -82 8 -254 41 -487 -100 -570 -346 -9 -25 -24 -78 -34 -118 -19 -72 -33
-92 -45 -61 -9 24 -169 268 -178 272 -5 2 -8 8 -8 13 0 5 -42 67 -93 137 -84
114 -93 130 -84 152 6 14 23 53 39 88 15 35 28 65 28 67 0 2 15 36 34 77 18
40 44 96 56 123 28 63 151 308 177 355 11 19 35 62 53 95 33 59 124 199 184
283 80 112 192 212 235 212 9 0 34 -9 56 -19z m-4765 -330 c213 -187 543 -518
784 -788 128 -143 154 -167 232 -206 112 -57 114 -57 989 -57 881 0 876 0 994
60 66 33 126 88 252 230 251 283 601 629 849 838 52 44 96 77 98 72 2 -5 -10
-29 -26 -52 -16 -24 -32 -50 -36 -58 -4 -8 -12 -24 -19 -35 -85 -140 -222
-397 -277 -520 -12 -27 -39 -86 -60 -130 -21 -44 -44 -98 -53 -120 -8 -22 -26
-65 -40 -95 -51 -112 -69 -181 -64 -243 3 -32 9 -63 15 -70 5 -7 24 -39 42
-72 18 -33 42 -76 53 -95 11 -19 80 -154 154 -299 l134 -264 -12 -99 c-15
-132 -6 -655 14 -798 54 -381 140 -708 255 -970 101 -232 210 -425 339 -605
78 -110 97 -133 164 -209 72 -82 69 -70 69 -296 0 -139 -5 -226 -14 -270 -15
-67 -59 -209 -78 -247 -21 -43 -1 -42 72 5 72 47 196 160 254 232 l28 35 -6
-87 c-6 -92 -36 -184 -92 -284 -144 -259 -364 -560 -720 -987 -133 -158 -196
-241 -200 -263 -7 -37 15 -85 48 -108 29 -20 87 -20 115 -1 18 13 150 163 283
321 49 58 225 283 304 387 59 78 92 114 97 105 9 -18 43 -145 64 -243 9 -44
21 -98 26 -120 47 -205 89 -644 89 -930 -1 -283 -46 -708 -89 -835 -5 -14 -17
-52 -26 -85 -130 -460 -467 -897 -940 -1219 -94 -63 -120 -80 -145 -92 -7 -4
-41 -24 -75 -44 -182 -111 -501 -249 -800 -349 -139 -46 -414 -147 -480 -177
-16 -7 -53 -22 -80 -32 -28 -11 -85 -36 -128 -56 -96 -44 -134 -55 -122 -35 5
8 18 30 30 49 56 92 77 206 59 326 -24 174 -191 440 -419 669 -213 214 -438
379 -935 685 -146 90 -292 184 -325 209 -33 25 -127 111 -208 191 -151 147
-192 174 -289 195 -18 4 -37 11 -43 15 -5 4 -23 10 -40 14 -38 8 -138 48 -145
56 -3 4 -33 26 -66 48 -82 56 -128 58 -179 7 -29 -30 -35 -43 -35 -79 0 -49
25 -81 105 -137 27 -19 58 -42 69 -52 11 -9 23 -17 27 -17 4 0 14 -6 21 -13
12 -12 317 -217 360 -242 9 -5 65 -40 123 -77 59 -38 110 -68 115 -68 5 0 93
-51 197 -114 483 -292 772 -487 955 -646 283 -244 498 -555 498 -719 0 -52
-22 -121 -49 -160 -25 -35 -104 -194 -126 -253 -10 -27 -20 -48 -22 -48 -3 0
-18 9 -34 21 -99 70 -257 112 -424 112 -167 0 -205 -21 -205 -113 0 -33 6 -48
29 -71 28 -28 33 -29 124 -29 190 0 327 -44 413 -134 96 -99 116 -187 57 -242
l-26 -24 -444 0 -443 0 -40 25 c-36 23 -90 97 -90 124 0 7 -8 31 -19 54 -10
23 -35 85 -56 137 -20 52 -70 164 -110 247 -41 84 -77 163 -81 175 -18 59
-295 499 -344 548 -3 3 -25 32 -49 65 -64 86 -240 291 -303 353 -38 37 -65 54
-90 58 -69 12 -138 -47 -138 -115 0 -16 11 -43 25 -62 13 -19 32 -44 41 -56
24 -33 11 -125 -27 -191 -31 -54 -114 -126 -160 -137 -23 -6 -27 -3 -33 22
-10 38 -106 237 -117 241 -5 2 -9 8 -9 13 0 19 -114 165 -184 235 -70 71 -215
184 -235 184 -6 0 -11 3 -11 8 0 23 -306 152 -361 152 -11 0 -27 4 -37 9 -27
15 -177 31 -282 31 -115 0 -253 -17 -297 -36 -97 -43 -96 -182 2 -214 24 -8
50 -8 90 -1 79 15 178 -9 338 -82 62 -28 72 -29 100 -18 57 21 188 26 242 8
71 -25 201 -116 289 -203 201 -202 315 -475 316 -759 0 -77 -14 -192 -25 -203
-2 -3 -44 3 -92 14 -71 15 -130 19 -308 19 -248 0 -268 -5 -300 -70 -20 -43
-15 -72 21 -114 l26 -31 196 0 c359 0 550 -55 678 -193 71 -76 89 -116 74
-161 -6 -18 -21 -42 -33 -54 -22 -20 -32 -20 -597 -23 -625 -3 -561 -7 -840
50 -202 42 -521 189 -668 308 l-44 36 29 12 c15 7 51 20 78 30 70 24 175 75
175 85 0 5 -29 47 -64 94 -81 106 -165 273 -206 407 -17 57 -45 149 -62 204
-43 140 -73 198 -137 265 -89 93 -188 137 -326 147 l-88 6 6 201 c3 111 11
226 17 256 34 158 44 199 57 245 69 230 185 448 334 627 167 201 488 527 755
768 27 25 74 68 104 95 31 28 98 88 150 135 223 199 419 404 532 555 85 115
195 314 213 387 12 46 29 51 50 15 10 -18 24 -37 29 -44 6 -7 28 -36 48 -65
63 -88 215 -292 235 -313 10 -11 30 -36 44 -55 15 -19 36 -45 47 -58 11 -13
35 -42 54 -65 18 -23 47 -57 64 -77 17 -19 40 -46 52 -60 46 -55 59 -68 110
-113 44 -39 59 -47 93 -47 73 0 125 76 98 142 -11 26 -113 157 -139 178 -20
16 -343 421 -443 555 -212 284 -328 472 -392 631 -18 45 -28 92 -31 152 l-6
87 28 -35 c72 -92 210 -212 302 -263 31 -18 32 -18 32 0 0 11 -4 23 -8 28 -13
14 -67 189 -82 262 -13 66 -8 450 9 593 16 145 31 255 41 305 5 28 16 91 25
140 9 50 20 104 25 120 4 17 11 50 15 75 4 25 11 59 16 75 12 40 49 189 60
245 6 25 14 53 19 62 6 10 10 24 10 33 0 8 6 34 14 57 7 24 21 70 31 103 29
102 67 219 75 235 4 9 11 31 15 50 4 19 10 40 14 45 4 6 15 37 26 70 10 33 22
64 27 69 4 6 8 16 8 24 0 8 6 28 14 45 8 18 26 66 41 107 15 41 33 89 41 105
7 17 33 81 59 143 25 62 57 139 71 170 32 71 45 101 79 177 97 217 273 566
415 825 85 155 87 164 56 262 -15 45 -33 95 -41 112 -46 102 -65 147 -65 153
0 4 -13 34 -29 67 -76 158 -141 297 -141 302 0 2 -12 23 -26 45 -14 23 -48 84
-75 135 -27 51 -81 146 -119 209 -39 64 -70 121 -70 126 0 12 52 -30 190 -150z
m4830 -1411 c164 -162 290 -315 487 -590 73 -102 136 -189 141 -195 63 -85
188 -285 207 -334 22 -54 26 -79 26 -161 0 -54 -5 -117 -11 -141 -7 -24 -15
-63 -20 -88 -14 -77 -39 -202 -55 -276 -8 -38 -20 -95 -25 -125 -6 -30 -16
-86 -24 -125 -8 -38 -21 -110 -31 -160 -9 -49 -20 -110 -25 -135 -5 -25 -16
-83 -24 -130 -9 -47 -23 -121 -31 -165 -8 -44 -19 -109 -25 -145 -6 -36 -17
-101 -25 -145 -8 -44 -20 -115 -27 -157 -6 -43 -14 -78 -18 -78 -13 0 -169
193 -266 329 -51 70 -124 181 -164 247 -63 105 -204 377 -237 459 -130 322
-195 555 -239 860 -22 148 -25 552 -5 690 25 174 59 353 82 430 5 17 18 61 29
98 20 69 67 149 98 166 26 14 63 -12 182 -129z m417 -42 c82 -62 171 -130 199
-153 27 -22 76 -60 108 -85 32 -25 151 -119 265 -210 226 -181 239 -190 326
-235 101 -53 222 -88 337 -99 37 -4 242 1 455 11 540 24 1441 24 1748 0 121
-10 256 -22 300 -28 135 -17 155 -12 229 63 107 110 236 156 357 128 73 -17
164 -65 494 -260 224 -133 836 -504 955 -579 14 -9 34 -21 45 -27 63 -35 658
-402 697 -431 26 -19 65 -61 86 -93 57 -84 75 -150 71 -252 -3 -70 -9 -94 -38
-153 -80 -163 -302 -503 -396 -604 -80 -87 -199 -130 -298 -110 -106 23 -133
43 -328 238 -286 286 -478 510 -679 791 -98 138 -240 355 -287 440 -17 30 -46
82 -65 115 -18 33 -66 128 -106 210 -131 271 -123 258 -165 274 -74 27 -157
-25 -157 -98 0 -23 50 -173 70 -212 5 -9 12 -34 16 -55 3 -22 10 -43 13 -49 4
-5 15 -37 25 -70 10 -33 22 -68 27 -77 5 -10 9 -23 9 -30 0 -7 6 -25 14 -40 8
-15 17 -40 21 -57 3 -17 17 -53 31 -81 13 -27 24 -54 24 -60 0 -6 4 -18 9 -28
23 -40 71 -151 71 -161 0 -6 5 -11 10 -11 6 0 10 -7 10 -16 0 -8 13 -38 28
-67 16 -29 42 -77 58 -107 16 -30 35 -61 41 -68 7 -7 13 -20 13 -28 0 -8 5
-14 10 -14 6 0 10 -4 10 -10 0 -9 58 -99 71 -110 3 -3 14 -20 24 -38 11 -17
27 -34 36 -37 9 -3 43 8 75 24 98 49 97 49 142 -11 24 -32 42 -69 45 -93 3
-22 13 -76 21 -120 24 -135 44 -245 65 -370 11 -66 25 -142 31 -170 5 -27 23
-135 40 -240 17 -104 35 -215 40 -245 5 -30 17 -104 25 -165 9 -60 20 -132 25
-160 5 -27 14 -97 20 -155 6 -58 13 -113 16 -122 3 -9 5 -129 6 -266 0 -240
-5 -303 -38 -497 -64 -367 -240 -694 -458 -850 -35 -25 -66 -55 -70 -68 -11
-43 -6 -84 17 -118 20 -31 28 -34 75 -37 50 -3 57 0 120 47 119 88 242 232
330 389 23 41 42 75 42 77 0 2 13 32 29 67 38 82 96 254 115 343 21 98 46 248
46 279 0 14 3 26 7 26 3 0 40 -30 82 -68 287 -256 610 -501 1000 -761 220
-147 346 -249 494 -404 194 -203 403 -520 487 -740 12 -28 25 -61 30 -72 38
-83 108 -349 131 -500 19 -120 19 -573 1 -670 -28 -150 -37 -187 -49 -197 -10
-8 -13 -3 -13 25 0 20 -4 38 -9 41 -5 4 -12 24 -16 46 -4 22 -11 40 -16 40 -5
0 -9 6 -9 14 0 14 -26 67 -45 93 -50 68 -138 131 -191 140 -19 3 -37 10 -40
14 -7 12 -300 11 -338 0 -34 -11 -142 -47 -193 -65 -18 -6 -33 -14 -33 -18 0
-5 -5 -8 -11 -8 -7 0 -31 -12 -55 -27 -39 -25 -44 -32 -44 -65 0 -21 5 -38 10
-38 6 0 10 -10 10 -21 0 -57 77 -132 190 -186 41 -20 77 -39 80 -42 3 -3 24
-19 46 -34 141 -96 215 -269 181 -422 -3 -12 -8 -46 -12 -78 -4 -31 -11 -57
-15 -57 -4 0 -10 -15 -13 -33 -8 -49 -65 -164 -95 -193 -49 -45 -172 -99 -317
-137 -78 -21 -94 -21 -670 -19 l-590 3 -29 29 c-24 24 -30 37 -30 79 -2 131
168 241 374 241 74 0 92 3 121 23 45 30 58 77 36 130 -24 56 -65 70 -196 66
l-105 -4 -19 65 c-15 52 -19 99 -20 240 -1 189 10 253 67 387 119 282 375 497
679 567 89 21 269 21 401 0 121 -19 162 -9 190 47 22 44 20 70 -7 110 -26 39
-63 54 -187 75 -359 59 -731 -58 -1003 -316 -240 -227 -369 -529 -370 -860 -1
-131 6 -180 41 -323 l17 -69 -25 -19 c-84 -67 -112 -94 -148 -148 -53 -80 -75
-151 -70 -232 2 -35 6 -71 8 -79 4 -13 -42 -15 -367 -18 -258 -1 -373 1 -373
8 0 6 6 23 14 38 8 15 27 66 41 112 39 122 110 320 146 405 4 11 24 58 42 105
145 357 326 674 478 836 57 61 70 108 45 161 -20 42 -72 67 -121 57 -38 -7
-80 -46 -166 -154 -117 -146 -282 -447 -421 -770 -38 -87 -106 -268 -214 -569
-42 -117 -72 -161 -133 -195 l-49 -26 -433 0 -434 0 -27 25 c-55 51 -47 121
23 206 65 79 173 119 322 119 88 0 89 0 123 34 24 24 34 43 34 64 0 86 -48
122 -160 122 -66 0 -106 -5 -225 -26 -35 -7 -28 -20 -95 196 -54 175 -61 201
-101 350 -27 103 -39 131 -65 158 -25 25 -40 32 -69 32 -45 0 -88 -29 -105
-69 -14 -34 -10 -53 47 -261 19 -69 40 -148 48 -176 8 -28 35 -113 60 -189 25
-76 44 -139 42 -141 -2 -2 -44 3 -93 11 -166 28 -451 108 -534 152 -14 7 -29
13 -33 13 -5 0 -56 23 -115 52 -644 312 -1151 920 -1398 1678 -34 105 -46 124
-90 145 -43 20 -93 7 -124 -32 -31 -39 -26 -100 20 -235 202 -596 588 -1142
1052 -1486 108 -81 253 -173 348 -223 36 -18 68 -37 71 -41 3 -5 -21 -86 -53
-181 -32 -94 -58 -173 -58 -174 0 -2 -17 -21 -37 -44 -71 -79 -62 -77 -499
-85 -214 -4 -410 -4 -436 0 -103 16 -143 116 -79 202 78 107 187 154 356 154
86 0 88 1 121 34 24 24 34 43 34 65 0 43 -22 84 -56 101 -28 15 -129 20 -233
10 l-54 -5 -52 150 c-90 261 -234 586 -360 810 -57 102 -177 339 -195 385 -7
19 -19 49 -26 65 -45 102 -114 338 -148 505 -38 182 -37 195 24 254 116 114
154 205 148 353 -2 54 -8 105 -12 114 -4 10 4 29 24 54 32 40 39 89 20 126 -6
10 -36 37 -66 60 -206 152 -370 436 -443 766 -37 167 -40 193 -53 373 -12 185
-2 496 22 645 5 33 17 107 25 165 34 229 61 403 81 515 7 44 23 136 34 205 35
210 90 526 115 660 9 47 20 109 25 137 11 62 24 91 34 74 4 -6 15 -11 24 -11
9 0 30 -7 46 -15 16 -9 31 -14 33 -12 2 3 6 29 9 58 3 30 8 61 12 69 3 8 11
56 18 105 7 50 18 115 23 145 11 59 34 203 51 315 5 39 12 84 16 100 38 194
56 317 56 390 1 74 -20 185 -34 185 -4 0 -8 8 -8 19 0 10 -7 24 -15 31 -8 7
-15 17 -15 22 0 6 -8 22 -18 36 -11 15 -37 61 -59 102 -106 198 -498 736 -715
983 -33 37 -55 67 -49 67 6 0 77 -50 158 -112z m-79 -4338 c-6 -69 -14 -129
-19 -133 -4 -5 -17 23 -29 62 l-22 70 38 65 c21 36 39 64 41 63 1 -2 -3 -59
-9 -127z m-619 -3667 c-194 -366 -258 -519 -319 -761 -15 -63 -31 -116 -34
-120 -4 -3 -28 0 -54 7 -145 41 -293 59 -375 47 -86 -13 -129 -86 -96 -159 19
-43 58 -57 157 -57 155 0 289 -38 381 -107 18 -14 51 -53 72 -86 50 -78 53
-131 10 -179 l-30 -33 -441 2 c-305 2 -448 6 -463 14 -43 22 -86 72 -105 123
-11 28 -32 85 -47 126 -39 104 -52 135 -135 314 -27 59 -50 111 -50 115 0 4
24 15 53 25 28 10 61 21 72 26 11 5 47 18 80 29 85 28 261 94 320 121 94 42
350 169 415 206 184 104 439 290 585 426 39 37 72 64 74 63 2 -2 -30 -66 -70
-142z m-4224 -738 c15 -3 42 -49 102 -172 45 -92 96 -204 113 -248 18 -44 35
-89 40 -100 4 -11 19 -51 33 -90 14 -38 28 -78 32 -88 7 -16 -15 -17 -411 -15
l-419 3 5 30 c12 72 3 162 -22 216 -36 78 -113 166 -202 229 -69 48 -77 57
-72 80 3 14 11 52 17 85 6 33 12 65 14 72 3 9 95 10 377 7 205 -3 382 -7 393
-9z m2544 -225 c55 -114 191 -458 191 -481 0 -5 -205 -9 -467 -9 l-468 0 0 97
c0 56 -6 118 -14 144 -8 25 -12 53 -8 62 12 32 625 314 688 316 11 1 36 -41
78 -129z m4989 -139 c121 -41 290 -85 377 -99 43 -7 49 -11 45 -27 -3 -11 -5
-66 -5 -122 l0 -103 -343 0 c-323 0 -344 1 -339 18 4 9 33 96 66 192 34 96 61
176 61 178 0 7 31 -2 138 -37z"/>
<path d="M8545 11751 c-11 -5 -31 -10 -43 -10 -67 -2 -178 -82 -230 -164 -99
-158 -78 -345 53 -473 86 -83 129 -99 265 -99 102 0 121 3 164 24 67 34 146
115 181 187 25 53 28 69 28 159 0 89 -3 106 -28 158 -32 67 -103 142 -166 175
-66 35 -189 58 -224 43z m216 -236 c26 -14 49 -49 49 -75 0 -5 -12 -22 -26
-39 -17 -21 -35 -31 -54 -31 -33 0 -80 43 -80 74 0 36 37 77 78 85 2 1 16 -6
33 -14z"/>
<path d="M10955 11751 c-11 -5 -31 -10 -45 -10 -71 -2 -209 -109 -246 -191 -8
-19 -21 -46 -27 -59 -7 -14 -12 -66 -12 -120 1 -85 4 -103 30 -156 34 -72 114
-153 181 -185 67 -32 211 -40 286 -15 193 63 306 289 238 475 -48 132 -149
226 -269 251 -79 16 -115 19 -136 10z m-37 -257 c29 -33 28 -65 -4 -98 -32
-31 -72 -34 -102 -6 -31 29 -38 65 -18 96 33 49 83 52 124 8z"/>
<path d="M9660 10899 c-227 -23 -415 -108 -456 -206 -28 -67 -8 -178 54 -307
85 -174 229 -302 400 -356 65 -21 56 -42 -34 -80 -309 -129 -557 -80 -743 145
-62 75 -88 89 -143 78 -62 -12 -94 -91 -63 -157 30 -62 147 -177 256 -251 125
-86 261 -212 300 -279 24 -42 29 -63 29 -117 0 -75 24 -222 46 -289 56 -164
167 -279 321 -331 55 -19 90 -23 183 -24 125 0 181 12 270 56 116 57 188 143
240 287 28 76 33 104 37 217 5 112 9 138 31 185 33 70 137 175 262 262 151
107 190 139 247 208 64 77 82 125 63 169 -15 38 -53 63 -96 64 -43 1 -74 -16
-103 -59 -39 -56 -143 -147 -201 -176 -175 -85 -361 -77 -578 23 -80 37 -79
54 3 87 82 33 186 103 236 160 91 103 152 239 165 367 9 91 0 127 -46 173 -79
78 -225 130 -428 151 -114 12 -129 12 -252 0z m32 -1387 c3 -70 8 -93 24 -110
43 -46 113 -54 164 -19 40 27 60 81 60 160 0 56 1 58 23 51 12 -3 24 -11 25
-15 2 -5 10 -9 18 -9 7 0 38 -24 69 -52 l55 -53 2 -120 c1 -130 -5 -178 -33
-240 -35 -77 -95 -128 -181 -151 -148 -39 -295 8 -364 117 -42 68 -54 118 -61
256 l-6 132 52 48 c45 42 123 93 142 93 4 0 8 -40 11 -88z"/>
<path d="M14525 11074 c-87 -22 -182 -85 -228 -151 -45 -65 -67 -138 -67 -225
0 -77 4 -93 43 -178 25 -55 97 -127 157 -158 24 -13 75 -30 112 -37 59 -13 77
-13 136 0 125 26 221 99 277 210 28 55 30 68 30 165 0 97 -2 110 -30 164 -39
77 -109 147 -182 181 -46 22 -75 28 -143 31 -47 2 -94 1 -105 -2z m252 -236
c32 -30 31 -81 -2 -113 -72 -73 -178 28 -114 109 27 34 82 36 116 4z"/>
<path d="M16894 11071 c-92 -24 -184 -91 -232 -170 -31 -50 -62 -151 -62 -201
0 -52 32 -154 64 -205 61 -94 137 -145 256 -170 61 -13 79 -13 138 0 129 27
221 98 279 215 23 48 27 67 27 156 1 59 -4 111 -11 125 -6 13 -19 41 -28 61
-24 52 -110 133 -175 164 -43 21 -74 27 -140 30 -47 2 -99 0 -116 -5z m45
-237 c29 -36 27 -76 -5 -108 -53 -52 -134 -19 -134 54 0 51 30 80 81 80 29 0
42 -6 58 -26z"/>
<path d="M15672 10440 c-158 -22 -294 -90 -350 -175 -56 -85 -41 -190 45 -302
81 -106 201 -194 296 -217 l28 -7 -3 -97 -3 -97 -77 -46 c-42 -26 -117 -59
-165 -75 -76 -25 -103 -29 -193 -28 -143 2 -231 37 -351 139 -36 31 -62 45
-81 45 -82 0 -142 -86 -106 -153 44 -84 291 -346 415 -440 64 -49 67 -55 78
-122 10 -60 79 -193 131 -253 128 -146 306 -220 500 -208 225 14 414 140 512
341 26 53 38 90 56 175 4 15 25 38 55 58 81 55 218 189 328 321 98 118 103
126 103 170 -1 48 -18 79 -57 100 -47 25 -92 8 -168 -62 -30 -27 -96 -64 -161
-89 -76 -30 -241 -32 -319 -4 -89 31 -176 79 -226 124 l-50 45 3 75 c2 54 7
77 18 82 8 4 47 23 85 41 126 61 271 226 290 332 14 72 -2 122 -55 180 -84 92
-222 143 -409 151 -58 3 -134 1 -169 -4z m328 -1197 c72 -33 129 -53 155 -53
23 0 24 -1 27 -107 5 -173 -17 -246 -99 -334 -55 -59 -92 -83 -169 -109 -183
-61 -382 28 -467 210 -28 60 -31 75 -35 201 l-4 136 50 6 c28 3 59 10 69 16
10 5 36 17 58 26 22 9 48 20 57 25 31 17 35 11 41 -67 5 -73 8 -80 38 -105 45
-38 114 -39 153 -3 35 32 46 65 46 135 0 66 -7 64 80 23z"/>
</g>
</svg>
