<?xml version="1.0" standalone="no"?>
<!DOCTYPE svg PUBLIC "-//W3C//DTD SVG 20010904//EN"
 "http://www.w3.org/TR/2001/REC-SVG-20010904/DTD/svg10.dtd">
<svg version="1.0" xmlns="http://www.w3.org/2000/svg"
 width="1200.000000pt" height="1200.000000pt" viewBox="0 0 1200.000000 1200.000000"
 preserveAspectRatio="xMidYMid meet">

<g transform="translate(0.000000,1200.000000) scale(0.100000,-0.100000)"
fill="#000000" stroke="none">
<path d="M4836 6764 c-242 -58 -405 -299 -367 -542 16 -106 58 -190 133 -268
193 -202 510 -200 700 4 180 192 179 478 -2 666 -125 130 -294 181 -464 140z
m294 -160 c102 -41 116 -178 23 -235 -51 -32 -124 -23 -166 20 -29 28 -32 37
-32 91 0 51 4 62 30 90 24 25 63 45 97 49 4 1 26 -6 48 -15z"/>
<path d="M7518 6740 c-104 -26 -228 -117 -287 -208 -178 -277 -32 -654 284
-737 273 -71 543 99 602 379 45 218 -66 434 -276 534 -68 33 -82 36 -180 38
-58 2 -123 -1 -143 -6z m348 -193 c43 -46 52 -94 28 -143 -36 -72 -111 -101
-178 -69 -67 32 -96 118 -61 186 41 78 151 92 211 26z"/>
<path d="M5655 5161 c-49 -13 -72 -29 -85 -61 -49 -118 126 -390 498 -772
l152 -157 -2 -288 -3 -288 -85 -17 c-111 -23 -301 -24 -406 -3 -100 21 -224
71 -300 121 -76 51 -185 153 -242 229 -25 33 -49 64 -53 69 -9 10 -79 -23 -79
-38 0 -19 92 -135 162 -204 129 -127 281 -214 444 -254 l84 -21 0 -113 c0
-342 155 -662 367 -762 50 -23 71 -27 153 -27 82 0 103 4 153 27 212 100 367
420 367 761 l0 112 88 23 c100 25 223 82 314 143 95 64 235 211 291 305 4 7
-10 22 -32 37 l-39 26 -26 -39 c-119 -181 -302 -317 -501 -375 -148 -43 -375
-48 -510 -12 l-50 13 -3 289 -2 288 182 186 c331 337 488 560 488 695 0 64
-22 89 -94 107 -87 22 -285 -14 -523 -94 l-100 -33 -99 34 c-219 75 -430 114
-509 93z"/>
</g>
</svg>
